<svg xmlns="http://www.w3.org/2000/svg" version="1.1" xmlns:xlink="http://www.w3.org/1999/xlink" xmlns:svgjs="http://svgjs.dev/svgjs" width="1000" height="1000" viewBox="0 0 1000 1000"><rect width="1000" height="1000" fill="#11365a"></rect><g transform="matrix(0.7,0,0,0.7,149.57575757575756,282.1265587044535)"><svg viewBox="0 0 396 247" data-background-color="#11365a" preserveAspectRatio="xMidYMid meet" height="623" width="1000" xmlns="http://www.w3.org/2000/svg" xmlns:xlink="http://www.w3.org/1999/xlink"><g id="tight-bounds" transform="matrix(1,0,0,1,0.2400000000000091,-0.09999999999999432)"><svg viewBox="0 0 395.52 247.2" height="247.2" width="395.52"><g><svg></svg></g><g><svg viewBox="0 0 395.52 247.2" height="247.2" width="395.52"><g transform="matrix(1,0,0,1,75.54432,100.18449430156578)"><svg viewBox="0 0 244.43135999999998 46.83101139686844" height="46.83101139686844" width="244.43135999999998"><g><svg viewBox="0 0 244.43135999999998 46.83101139686844" height="46.83101139686844" width="244.43135999999998"><g><svg viewBox="0 0 244.43136 46.83101139686845" height="46.83101139686844" width="244.43135999999998"><g><svg viewBox="0 0 244.43136 46.83101139686845" height="46.83101139686845" width="244.43136"><g id="textblocktransform"><svg viewBox="0 0 244.43136 46.83101139686845" height="46.83101139686845" width="244.43136" id="textblock"><g><svg viewBox="0 0 244.43136 46.83101139686845" height="46.83101139686845" width="244.43136"><g transform="matrix(1,0,0,1,0,0)"><svg width="244.43136" viewBox="3.200000047683716 -37.380001068115234 198.010009765625 37.94000244140625" height="46.83101139686845" data-palette-color="#57474d"><path d="M6.98-2.64L6.98-34.18 3.2-34.74 3.2-36.82 18.87-36.82Q28.56-36.82 33.96-32.08L33.96-32.08Q39.23-27.42 39.23-19.31L39.23-19.31Q39.23-13.48 36.52-8.89L36.52-8.89Q34.03-4.66 29.61-2.29L29.61-2.29Q25.32 0 20.36 0L20.36 0 3.2 0 3.2-2.08 6.98-2.64ZM18.75-33.86L11.5-33.86 11.5-2.93 20.31-2.93Q26.44-2.93 30.47-6.79L30.47-6.79Q34.62-10.82 34.62-17.31L34.62-17.31Q34.62-29.74 25.93-32.81L25.93-32.81Q22.92-33.86 18.75-33.86L18.75-33.86ZM64.57-26.34L62.62-26.34Q62.62-32.81 57.18-32.81L57.18-32.81Q54.78-32.81 53.24-31.27L53.24-31.27Q51.68-29.71 51.68-27.37L51.68-27.37Q51.68-24.71 56.2-19.87L56.2-19.87 61.74-14.01Q65.89-9.77 67.59-8.19 69.28-6.62 70.68-5.57L70.68-5.57Q73.7-3.32 75.52-3.32 77.34-3.32 78.85-4.32L78.85-4.32 80.34-2.76Q76.85 0.56 74.02 0.56L74.02 0.56Q72.12 0.56 70.19-0.71L70.19-0.71Q69.26-1.32 68.26-2.15L68.26-2.15 66.06-3.96Q61.79 0.56 56.13 0.56L56.13 0.56Q50.95 0.56 47.87-1.9L47.87-1.9Q44.68-4.44 44.68-8.91L44.68-8.91Q44.68-12.4 46.92-15.04L46.92-15.04Q48.8-17.29 51.68-18.38L51.68-18.38Q47.39-23.39 47.39-27.1L47.39-27.1Q47.39-30.93 50.29-33.3L50.29-33.3Q53.05-35.55 57.05-35.55L57.05-35.55Q60.45-35.55 62.52-34.85 64.6-34.16 65.45-33.64L65.45-33.64 64.57-26.34ZM60.84-8.81L53.49-16.55 53.49-16.5Q51.66-15.55 50.52-13.76 49.39-11.96 49.39-10.05 49.39-8.13 49.84-6.84 50.29-5.54 51.24-4.54L51.24-4.54Q53.34-2.29 57.27-2.29L57.27-2.29Q60.91-2.29 64.48-5.32L64.48-5.32Q62.64-6.98 60.84-8.81L60.84-8.81ZM102.78-31.23L102.78-31.23Q103.44-29.54 103.44-27.39 103.44-25.24 102.77-23.49 102.09-21.73 100.83-20.46L100.83-20.46Q98.41-18.04 93.72-17.07L93.72-17.07 94.16-17.87 103.8-3.22 105.51-2.47 108.95-2.08 108.95 0 100.58 0 89.59-17.55 91.65-16.67 85.1-16.67 85.1-2.64 88.76-2.08 88.76 0 76.8 0 76.8-2.08 80.59-2.64 80.59-34.18 76.8-34.74 76.8-36.82 88.84-36.82Q100.53-36.82 102.78-31.23ZM89.08-33.86L85.1-33.86 85.1-19.31 88.72-19.31Q96.63-19.31 98.29-23.93L98.29-23.93Q98.8-25.32 98.8-26.94 98.8-28.56 98.33-29.86 97.87-31.15 96.77-32.03L96.77-32.03Q94.5-33.86 89.08-33.86L89.08-33.86ZM147.06-37.38L147.06-37.38Q152.02-37.38 156.14-36.13L156.14-36.13Q157.95-35.57 159.17-34.89L159.17-34.89 158.61-28.37 157-28.37Q157-31.08 154.34-32.71L154.34-32.71Q151.5-34.45 146.55-34.45L146.55-34.45Q140.13-34.45 135.93-30.13L135.93-30.13Q131.75-25.78 131.75-19.26L131.75-19.26Q131.75-12.35 135.61-7.54L135.61-7.54Q138.22-4.3 142.23-3.03L142.23-3.03Q144.28-2.37 146.89-2.37 149.5-2.37 151.53-2.67 153.55-2.98 154.85-3.66L154.85-3.66Q157.39-5 157.39-8.2L157.39-8.2 159-8.2 159.34-1.9Q155.09 0.56 146.82 0.56L146.82 0.56Q137.69 0.56 132.24-4.74L132.24-4.74Q127.04-9.79 127.04-17.77L127.04-17.77Q127.04-26.61 133.19-32.18L133.19-32.18Q138.88-37.38 147.06-37.38ZM165.15-11.87L165.15-11.87Q165.15-14.67 166.11-17.09 167.08-19.51 168.74-21.19L168.74-21.19Q172.16-24.73 177.16-24.73L177.16-24.73Q182.97-24.73 186.24-21.29L186.24-21.29Q189.34-17.99 189.34-12.67L189.34-12.67Q189.34-6.74 185.83-3.03L185.83-3.03Q182.41 0.56 177.38 0.56L177.38 0.56Q171.64 0.56 168.3-2.98L168.3-2.98Q165.15-6.3 165.15-11.87ZM171.4-19.15Q170.42-17.9 169.92-16.21 169.42-14.53 169.42-12.56 169.42-10.6 169.87-8.73 170.32-6.86 171.28-5.42L171.28-5.42Q173.38-2.29 177.33-2.29L177.33-2.29Q181.04-2.29 183.09-4.74L183.09-4.74Q185.12-7.13 185.12-11.21L185.12-11.21Q185.12-18.43 180.99-20.92L180.99-20.92Q179.46-21.85 177.36-21.85 175.26-21.85 173.82-21.13 172.38-20.41 171.4-19.15ZM196.42-0.18Q195.61-0.93 195.27-1.48 194.93-2.03 194.93-2.49 194.93-2.95 195.24-3.5 195.54-4.05 196.01-4.54L196.01-4.54Q197.1-5.69 198.06-5.69L198.06-5.69Q199.06-5.69 199.81-4.88L199.81-4.88Q201.21-3.47 201.21-2.51L201.21-2.51Q201.21-1.61 200.42-0.83L200.42-0.83Q199.03 0.56 198.06 0.56L198.06 0.56Q197.23 0.56 196.42-0.18Z" opacity="1" transform="matrix(1,0,0,1,0,0)" fill="#57474d" class="undefined-text-0" data-fill-palette-color="primary" id="text-0"></path></svg></g></svg></g></svg></g></svg></g></svg></g></svg></g></svg></g><path d="M206.737 94.184L206.737 33.087 387.763 33.087 387.763 214.113 206.737 214.113 206.737 153.016 210.96 153.016 210.96 209.89 383.54 209.89 383.54 37.31 210.96 37.31 210.96 94.184Z" fill="#57474d" stroke="transparent" data-fill-palette-color="primary"></path></svg></g><defs></defs></svg><rect width="395.52" height="247.2" fill="none" stroke="none" visibility="hidden"></rect></g></svg></g></svg>